<svg width="19" height="20" viewBox="0 0 19 20" fill="none" xmlns="http://www.w3.org/2000/svg">
<path fill-rule="evenodd" clip-rule="evenodd" d="M11.2619 1.75H7.07142V3.69118H2.88095C2.26427 3.69118 1.83333 4.22352 1.83333 4.82353V6.60294H2.88095V18.25H15.4524V6.60294H16.5V4.82353C16.5 4.22352 16.069 3.69118 15.4524 3.69118H11.2619V1.75ZM14.4048 6.60294H3.92857V17.2794H14.4048V6.60294ZM15.4524 5.63235V4.82353C15.4524 4.77393 15.4453 4.73698 15.4403 4.71101L15.4402 4.711L15.4402 4.711L15.4402 4.71098C15.436 4.68892 15.4333 4.67479 15.4378 4.66758L15.4524 4.66177L11.2619 4.66177H7.07142L2.88095 4.66177C2.90257 4.66177 2.89964 4.67692 2.89307 4.711C2.88807 4.73697 2.88095 4.77392 2.88095 4.82353V5.63235H15.4524ZM10.2143 3.69118V2.72059H8.11904V3.69118H10.2143ZM6.54761 16.3088V7.57353H5.49999V16.3088H6.54761ZM9.69047 7.57353V16.3088H8.64285V7.57353H9.69047ZM12.8333 7.57353V16.3088H11.7857V7.57353H12.8333Z" fill="#E20201"/>
</svg>
