<svg xmlns="http://www.w3.org/2000/svg" viewBox="0 0 16 16"><path fill="#fff" d="M12.67 10.31c-.58-.57-1.18-1.1-2.07-1.3l-.24-.05-.19.16c-.65.54-1.48.88-2.18.88-.7 0-1.54-.34-2.18-.88l-.19-.16-.24.05c-2 .43-3.39 2.28-3.39 4.49v.5h12v-.5c0-1.19-.47-2.32-1.32-3.19zM3.02 13c.17-1.42 1.08-2.58 2.35-2.95.79.6 1.75.95 2.62.95.86 0 1.82-.35 2.61-.95.52.18.93.55 1.36.97.54.55.88 1.24.99 1.98H3.02z"/><path fill="#fff" d="M7.99 9c1.74 0 3-2.39 3-4 0-1.71-1.29-3-3-3s-3 1.29-3 3c0 1.61 1.26 4 3 4zm0-6c1.16 0 2 .84 2 2 0 1.24-1.03 3-2 3s-2-1.76-2-3c0-1.16.84-2 2-2z"/></svg>